PathFileType	4	(X/Y/Z)	C:\Users\ebm\Documents\Erivelton\Erivelton\propulsion4.trc
DataRate	CameraRate	NumFrames	NumMarkers	Units	OrigDataRate	OrigDataStartFrame	OrigNumFrames
150.00	150.00	      60	28	mm	150.00	1094	      1250
Frame#	Time	IJ			PX			C7			T8			RAC			RAS			RPS			RAI			RPI			RLE			RME			RRS			RUS			R3M			R5M			LAC			LAS			LPS			LAI			LPI			LLE			LME			LRS			LUS			L3M			L5M			RW			LW			V_mid_elbow_r			V_mid_elbow_l			V_mid_wrist_r			V_mid_wrist_l			V_mid_trunk_low			V_mid_trunk_upp			
		X1	Y1	Z1	X2	Y2	Z2	X3	Y3	Z3	X4	Y4	Z4	X5	Y5	Z5	X6	Y6	Z6	X7	Y7	Z7	X8	Y8	Z8	X9	Y9	Z9	X10	Y10	Z10	X11	Y11	Z11	X12	Y12	Z12	X13	Y13	Z13	X14	Y14	Z14	X15	Y15	Z15	X16	Y16	Z16	X17	Y17	Z17	X18	Y18	Z18	X19	Y19	Z19	X20	Y20	Z20	X21	Y21	Z21	X22	Y22	Z22	X23	Y23	Z23	X24	Y24	Z24	X25	Y25	Z25	X26	Y26	Z26	X27	Y27	Z27	X28	Y28	Z28	

1094	7.287																																																				4873.40332	896.12866	-371.56241				4858.74561	821.87915	-407.74530																									
1095	7.293																																																				4885.56641	894.25397	-372.63425				4872.30029	819.62311	-408.58691																									
1096	7.300																																																										4886.22754	817.40674	-409.31558																									
1097	7.307																																																										4900.11768	815.42126	-410.08371																									
1098	7.313																																																										4913.62012	813.40643	-410.90381																									
1099	7.320																																																																																					
1100	7.327																																																																																					
1101	7.333																																																																																					
1102	7.340																																																																																					
1103	7.347																																																																																					
1104	7.353																																																																																					
1105	7.360																																																																																					
1106	7.367																																																																																					
1107	7.373																																																																																					
1108	7.380																																																																																					
1109	7.387																																																																																					
1110	7.393																																																																																					
1111	7.400																																																																																					
1112	7.407																																																																																					
1113	7.413																																																																																					
1114	7.420																																																																																					
1115	7.427																																																																																					
1116	7.433																																																																																					
1117	7.440																																																																																					
1118	7.447																																																																																					
1119	7.453																																																																																					
1120	7.460																																																																																					
1121	7.467																																																																																					
1122	7.473																																																																																					
1123	7.480																																																																																					
1124	7.487																																																																																					
1125	7.493																																																																																					
1126	7.500																																																																																					
1127	7.507																																																																																					
1128	7.513																																																																																					
1129	7.520																																																																																					
1130	7.527																																																																																					
1131	7.533																																																																																					
1132	7.540																																																																																					
1133	7.547																																																																																					
1134	7.553																																																																																					
1135	7.560																																																																																					
1136	7.567																																																																																					
1137	7.573																																																																																					
1138	7.580																																																																																					
1139	7.587																																																																																					
1140	7.593																																																																																					
1141	7.600																																																																																					
1142	7.607																																																																																					
1143	7.613																																																																																					
1144	7.620																																																																																					
1145	7.627																																																																																					
1146	7.633																																																																																					
1147	7.640																																																																																					
1148	7.647																																																																																					
1149	7.653																																																																																					
1150	7.660																																																																																					
1151	7.667																																																																																					
1152	7.673																																																																																					
1153	7.680																																																																																					
